<svg width="27" height="21" viewBox="0 0 27 21" fill="none" xmlns="http://www.w3.org/2000/svg">
<path d="M15.9999 21C15.8683 21.0008 15.7379 20.9755 15.616 20.9258C15.4942 20.876 15.3834 20.8027 15.2899 20.71C15.1962 20.617 15.1218 20.5064 15.071 20.3846C15.0203 20.2627 14.9941 20.132 14.9941 20C14.9941 19.868 15.0203 19.7373 15.071 19.6154C15.1218 19.4936 15.1962 19.383 15.2899 19.29L23.5899 11L15.2899 2.71C15.1016 2.5217 14.9958 2.2663 14.9958 2C14.9958 1.7337 15.1016 1.4783 15.2899 1.29C15.4782 1.1017 15.7336 0.995909 15.9999 0.995909C16.2662 0.995909 16.5216 1.1017 16.7099 1.29L25.7099 10.29C25.8037 10.383 25.8781 10.4936 25.9288 10.6154C25.9796 10.7373 26.0057 10.868 26.0057 11C26.0057 11.132 25.9796 11.2627 25.9288 11.3846C25.8781 11.5064 25.8037 11.617 25.7099 11.71L16.7099 20.71C16.6165 20.8027 16.5057 20.876 16.3838 20.9258C16.262 20.9755 16.1315 21.0008 15.9999 21Z" fill="white"/>
<path d="M25 12H1C0.734784 12 0.48043 11.8946 0.292893 11.7071C0.105357 11.5196 0 11.2652 0 11C0 10.7348 0.105357 10.4804 0.292893 10.2929C0.48043 10.1054 0.734784 10 1 10H25C25.2652 10 25.5196 10.1054 25.7071 10.2929C25.8946 10.4804 26 10.7348 26 11C26 11.2652 25.8946 11.5196 25.7071 11.7071C25.5196 11.8946 25.2652 12 25 12Z" fill="white"/>
</svg>
