<svg xmlns="http://www.w3.org/2000/svg" xmlns:xlink="http://www.w3.org/1999/xlink" width="1920" zoomAndPan="magnify" viewBox="0 0 1440 809.999993" height="1080" preserveAspectRatio="xMidYMid meet" version="1.0"><defs><clipPath id="a77694c863"><path d="M 398 57 L 1044.0625 57 L 1044.0625 703.875 L 398 703.875 Z M 398 57 " clip-rule="nonzero"/></clipPath></defs><g clip-path="url(#a77694c863)"><path fill="#3065ac" d="M 478.289062 57.679688 C 470.976562 58.003906 463.273438 59.414062 455.207031 61.933594 C 432.351562 68.65625 416.226562 82.085938 406.8125 99.5625 C 397.402344 117.039062 396.074219 137.207031 402.796875 160.058594 L 432.363281 152 C 428.328125 138.554688 426.996094 126.457031 429.683594 118.390625 C 432.375 103.601562 443.113281 92.835938 460.589844 87.457031 C 475.378906 83.425781 488.839844 84.785156 496.90625 90.160156 C 504.972656 95.539062 510.332031 103.59375 514.367188 113.007812 C 517.054688 121.074219 517.054688 129.148438 514.367188 137.214844 C 513.023438 142.59375 510.332031 146.621094 507.644531 152 L 498.242188 168.121094 C 488.832031 182.910156 484.804688 196.359375 483.460938 207.113281 C 482.117188 217.871094 484.785156 231.320312 488.816406 246.105469 L 515.707031 236.707031 C 511.671875 223.261719 510.34375 212.503906 511.6875 204.4375 C 513.03125 196.371094 517.066406 186.949219 525.132812 173.503906 C 535.886719 156.027344 542.609375 142.578125 545.296875 134.511719 C 547.988281 126.445312 546.648438 115.699219 543.957031 104.945312 C 538.582031 86.125 527.820312 72.679688 511.6875 64.613281 C 501.605469 59.570312 490.472656 57.144531 478.289062 57.679688 Z M 734.851562 84.777344 C 678.613281 84.777344 626.589844 100.28125 580.535156 125.398438 C 579.742188 125.8125 578.996094 126.296875 578.296875 126.855469 C 577.597656 127.417969 576.964844 128.042969 576.390625 128.730469 C 575.816406 129.417969 575.316406 130.152344 574.890625 130.941406 C 574.464844 131.726562 574.121094 132.550781 573.859375 133.40625 C 573.597656 134.261719 573.421875 135.132812 573.335938 136.023438 C 573.246094 136.914062 573.25 137.804688 573.339844 138.695312 C 573.429688 139.585938 573.605469 140.460938 573.871094 141.3125 C 574.136719 142.167969 574.480469 142.988281 574.910156 143.777344 C 575.339844 144.5625 575.839844 145.296875 576.414062 145.984375 C 576.988281 146.667969 577.628906 147.289062 578.328125 147.847656 C 579.027344 148.40625 579.773438 148.890625 580.570312 149.300781 C 581.367188 149.710938 582.195312 150.035156 583.054688 150.277344 C 583.917969 150.523438 584.792969 150.679688 585.6875 150.746094 C 586.578125 150.816406 587.46875 150.796875 588.359375 150.6875 C 589.246094 150.578125 590.113281 150.378906 590.964844 150.097656 C 591.8125 149.816406 592.625 149.449219 593.402344 149.003906 C 636.078125 125.726562 683.542969 111.667969 734.851562 111.667969 C 891.667969 111.667969 1017.175781 237.171875 1017.175781 393.992188 C 1017.175781 550.808594 891.667969 676.3125 734.851562 676.3125 C 578.035156 676.3125 452.527344 550.808594 452.527344 393.992188 C 452.527344 359.351562 458.9375 325.992188 470.488281 295.183594 C 470.8125 294.351562 471.054688 293.5 471.207031 292.621094 C 471.363281 291.742188 471.429688 290.859375 471.410156 289.96875 C 471.386719 289.078125 471.28125 288.199219 471.082031 287.328125 C 470.886719 286.460938 470.609375 285.617188 470.246094 284.804688 C 469.882812 283.992188 469.441406 283.21875 468.925781 282.496094 C 468.410156 281.769531 467.828125 281.101562 467.175781 280.488281 C 466.527344 279.878906 465.824219 279.339844 465.066406 278.867188 C 464.3125 278.398438 463.515625 278.007812 462.679688 277.695312 C 461.847656 277.382812 460.988281 277.152344 460.109375 277.011719 C 459.230469 276.871094 458.34375 276.816406 457.453125 276.851562 C 456.5625 276.882812 455.6875 277.003906 454.820312 277.214844 C 453.953125 277.421875 453.117188 277.714844 452.308594 278.089844 C 451.5 278.464844 450.734375 278.914062 450.015625 279.441406 C 449.296875 279.96875 448.640625 280.5625 448.039062 281.21875 C 447.4375 281.878906 446.90625 282.589844 446.449219 283.351562 C 445.988281 284.117188 445.609375 284.917969 445.308594 285.757812 C 432.664062 319.476562 425.640625 356.03125 425.640625 393.992188 C 425.640625 565.207031 563.636719 703.203125 734.851562 703.203125 C 906.070312 703.203125 1044.0625 565.207031 1044.0625 393.992188 C 1044.0625 222.773438 906.070312 84.777344 734.851562 84.777344 Z M 654.1875 178.886719 C 617.421875 178.886719 593.371094 203.101562 579.011719 221.765625 C 578.453125 222.464844 577.964844 223.207031 577.554688 224.003906 C 577.144531 224.796875 576.8125 225.625 576.566406 226.484375 C 576.320312 227.34375 576.160156 228.21875 576.089844 229.109375 C 576.019531 230.003906 576.035156 230.890625 576.140625 231.78125 C 576.246094 232.667969 576.441406 233.535156 576.71875 234.386719 C 577 235.238281 577.359375 236.050781 577.800781 236.828125 C 578.242188 237.605469 578.753906 238.332031 579.34375 239.007812 C 579.929688 239.683594 580.578125 240.292969 581.285156 240.839844 C 581.992188 241.386719 582.75 241.855469 583.550781 242.25 C 584.355469 242.644531 585.1875 242.957031 586.050781 243.1875 C 586.917969 243.414062 587.796875 243.558594 588.6875 243.609375 C 589.582031 243.664062 590.46875 243.628906 591.355469 243.503906 C 592.242188 243.382812 593.105469 243.171875 593.949219 242.875 C 594.792969 242.578125 595.601562 242.199219 596.367188 241.742188 C 597.136719 241.285156 597.851562 240.757812 598.515625 240.15625 C 599.179688 239.554688 599.777344 238.894531 600.308594 238.175781 C 612.835938 221.886719 629.113281 205.773438 654.1875 205.773438 C 676.59375 205.773438 686.828125 215.726562 686.828125 215.726562 C 687.480469 216.320312 688.1875 216.84375 688.941406 217.296875 C 689.699219 217.753906 690.492188 218.128906 691.324219 218.425781 C 692.15625 218.726562 693.007812 218.941406 693.878906 219.070312 C 694.753906 219.199219 695.628906 219.246094 696.511719 219.203125 C 697.394531 219.160156 698.261719 219.03125 699.117188 218.820312 C 699.976562 218.605469 700.804688 218.308594 701.601562 217.933594 C 702.398438 217.558594 703.152344 217.105469 703.863281 216.582031 C 704.574219 216.058594 705.226562 215.46875 705.820312 214.816406 C 706.414062 214.160156 706.9375 213.457031 707.390625 212.699219 C 707.847656 211.945312 708.222656 211.152344 708.523438 210.320312 C 708.820312 209.488281 709.035156 208.636719 709.167969 207.765625 C 709.296875 206.890625 709.34375 206.015625 709.300781 205.132812 C 709.257812 204.25 709.132812 203.382812 708.917969 202.523438 C 708.707031 201.667969 708.410156 200.839844 708.035156 200.042969 C 707.660156 199.242188 707.210938 198.488281 706.683594 197.78125 C 706.160156 197.070312 705.570312 196.417969 704.917969 195.824219 C 704.917969 195.824219 685.558594 178.886719 654.1875 178.886719 Z M 815.515625 192.332031 C 784.148438 192.332031 764.785156 209.265625 764.785156 209.265625 C 764.132812 209.859375 763.542969 210.511719 763.019531 211.222656 C 762.492188 211.933594 762.042969 212.6875 761.667969 213.488281 C 761.289062 214.285156 760.996094 215.113281 760.78125 215.96875 C 760.570312 216.828125 760.441406 217.695312 760.398438 218.578125 C 760.355469 219.460938 760.402344 220.339844 760.53125 221.210938 C 760.664062 222.085938 760.878906 222.9375 761.175781 223.769531 C 761.476562 224.597656 761.851562 225.394531 762.308594 226.148438 C 762.761719 226.90625 763.285156 227.609375 763.878906 228.265625 C 764.476562 228.917969 765.125 229.507812 765.835938 230.03125 C 766.546875 230.558594 767.300781 231.007812 768.101562 231.382812 C 768.898438 231.761719 769.726562 232.054688 770.582031 232.269531 C 771.441406 232.480469 772.308594 232.609375 773.191406 232.652344 C 774.074219 232.695312 774.953125 232.648438 775.824219 232.519531 C 776.699219 232.386719 777.550781 232.171875 778.382812 231.875 C 779.210938 231.574219 780.007812 231.199219 780.761719 230.742188 C 781.519531 230.289062 782.226562 229.765625 782.878906 229.171875 C 782.878906 229.171875 793.109375 219.21875 815.515625 219.21875 C 840.59375 219.21875 856.867188 235.332031 869.398438 251.621094 C 869.929688 252.339844 870.527344 253 871.1875 253.601562 C 871.851562 254.199219 872.566406 254.730469 873.335938 255.1875 C 874.105469 255.644531 874.910156 256.019531 875.753906 256.316406 C 876.597656 256.613281 877.464844 256.824219 878.347656 256.949219 C 879.234375 257.074219 880.125 257.109375 881.015625 257.054688 C 881.910156 257 882.789062 256.859375 883.652344 256.628906 C 884.519531 256.402344 885.351562 256.089844 886.152344 255.695312 C 886.957031 255.300781 887.710938 254.828125 888.421875 254.28125 C 889.128906 253.738281 889.777344 253.125 890.363281 252.449219 C 890.949219 251.777344 891.464844 251.050781 891.90625 250.273438 C 892.347656 249.492188 892.707031 248.679688 892.984375 247.832031 C 893.265625 246.980469 893.457031 246.113281 893.5625 245.222656 C 893.667969 244.335938 893.6875 243.445312 893.613281 242.554688 C 893.542969 241.664062 893.382812 240.789062 893.136719 239.925781 C 892.890625 239.066406 892.5625 238.242188 892.148438 237.445312 C 891.738281 236.652344 891.253906 235.90625 890.691406 235.210938 C 876.335938 216.542969 852.28125 192.332031 815.515625 192.332031 Z M 527.808594 263.59375 L 495.539062 272.996094 L 504.964844 306.605469 L 537.238281 297.203125 Z M 640.746094 272.996094 C 621.921875 272.996094 607.136719 297.195312 607.136719 326.769531 C 607.136719 356.347656 621.921875 380.546875 640.746094 380.546875 C 659.566406 380.546875 674.355469 356.347656 674.355469 326.769531 C 674.355469 297.195312 659.566406 272.996094 640.746094 272.996094 Z M 828.960938 272.996094 C 810.140625 272.996094 795.351562 297.195312 795.351562 326.769531 C 795.351562 356.347656 810.140625 380.546875 828.960938 380.546875 C 847.78125 380.546875 862.570312 356.347656 862.570312 326.769531 C 862.570312 297.195312 847.78125 272.996094 828.960938 272.996094 Z M 842.40625 488.097656 C 761.460938 488.097656 708.171875 509.027344 675.222656 530.636719 C 642.269531 552.242188 628.957031 575.71875 628.957031 575.71875 C 628.527344 576.496094 628.183594 577.304688 627.917969 578.144531 C 627.648438 578.988281 627.46875 579.847656 627.371094 580.726562 C 627.273438 581.605469 627.261719 582.484375 627.339844 583.363281 C 627.414062 584.242188 627.574219 585.109375 627.820312 585.957031 C 628.070312 586.804688 628.394531 587.621094 628.800781 588.40625 C 629.210938 589.191406 629.6875 589.925781 630.242188 590.617188 C 630.792969 591.304688 631.40625 591.933594 632.082031 592.503906 C 632.761719 593.074219 633.484375 593.570312 634.257812 593.996094 C 635.035156 594.421875 635.839844 594.769531 636.683594 595.035156 C 637.527344 595.300781 638.386719 595.484375 639.265625 595.582031 C 640.144531 595.679688 641.023438 595.6875 641.902344 595.613281 C 642.78125 595.535156 643.648438 595.375 644.496094 595.128906 C 645.34375 594.882812 646.160156 594.554688 646.945312 594.148438 C 647.730469 593.742188 648.464844 593.261719 649.15625 592.710938 C 649.84375 592.15625 650.472656 591.542969 651.042969 590.867188 C 651.613281 590.191406 652.109375 589.464844 652.535156 588.691406 C 652.535156 588.691406 661.394531 571.835938 689.953125 553.113281 C 718.507812 534.386719 766.054688 514.988281 842.40625 514.988281 C 843.296875 515 844.179688 514.925781 845.054688 514.761719 C 845.929688 514.597656 846.78125 514.351562 847.609375 514.019531 C 848.433594 513.6875 849.222656 513.277344 849.964844 512.789062 C 850.710938 512.300781 851.402344 511.742188 852.035156 511.117188 C 852.667969 510.492188 853.238281 509.808594 853.734375 509.070312 C 854.234375 508.332031 854.65625 507.554688 855 506.730469 C 855.34375 505.910156 855.601562 505.0625 855.777344 504.1875 C 855.953125 503.316406 856.042969 502.433594 856.042969 501.542969 C 856.042969 500.652344 855.953125 499.769531 855.777344 498.894531 C 855.601562 498.023438 855.34375 497.175781 855 496.351562 C 854.65625 495.53125 854.234375 494.75 853.734375 494.011719 C 853.238281 493.273438 852.667969 492.59375 852.035156 491.96875 C 851.402344 491.34375 850.710938 490.785156 849.964844 490.296875 C 849.222656 489.808594 848.433594 489.398438 847.609375 489.066406 C 846.78125 488.734375 845.929688 488.488281 845.054688 488.324219 C 844.179688 488.160156 843.296875 488.085938 842.40625 488.097656 Z M 842.40625 488.097656 " fill-opacity="1" fill-rule="nonzero"/></g></svg>