<svg xmlns="http://www.w3.org/2000/svg" xmlns:xlink="http://www.w3.org/1999/xlink" width="1920" zoomAndPan="magnify" viewBox="0 0 1440 809.999993" height="1080" preserveAspectRatio="xMidYMid meet" version="1.0"><defs><clipPath id="156e9a6f9e"><path d="M 566 91 L 961.4375 91 L 961.4375 703 L 566 703 Z M 566 91 " clip-rule="nonzero"/></clipPath></defs><g clip-path="url(#156e9a6f9e)"><path fill="#3065ac" d="M 859.605469 701.203125 C 854.0625 699.890625 840.359375 693.949219 827.601562 687.324219 C 815.332031 680.949219 802.382812 674.328125 798.820312 672.605469 C 795.257812 670.886719 792.355469 668.792969 792.371094 667.953125 C 792.386719 667.117188 794.734375 654.085938 797.59375 638.996094 L 802.789062 611.5625 L 798.027344 603.597656 C 791.570312 592.796875 780.003906 578.707031 778.40625 579.695312 C 777.691406 580.140625 777.089844 583.375 777.070312 586.886719 C 777.023438 596.113281 772.003906 617.472656 766.589844 631.472656 C 747.085938 681.917969 701.445312 705.421875 656.007812 688.414062 C 638.089844 681.710938 623.125 666.683594 613.402344 645.644531 C 602.277344 621.554688 598.789062 593.878906 603.347656 565.839844 C 605.644531 551.707031 614.054688 530.871094 624.167969 514.25 L 632.375 500.765625 L 627.121094 489.105469 C 614.265625 460.574219 604.710938 426.621094 601.839844 399.273438 C 600.253906 384.128906 596.144531 375.148438 581.816406 355.492188 C 576.328125 347.964844 570.707031 338.425781 569.328125 334.292969 C 564.695312 320.433594 566.347656 297.496094 574.6875 259.832031 C 577.753906 246 577.820312 244.550781 575.609375 239.910156 C 571.722656 231.761719 569.34375 212.683594 570.300781 197.335938 C 571.253906 181.996094 574.273438 171.582031 579.324219 166.207031 C 582.398438 162.933594 582.480469 162.175781 580.761719 152.847656 C 578.796875 142.183594 579.539062 136.148438 583.363281 131.757812 C 585.140625 129.714844 585.792969 125.671875 585.824219 116.515625 C 585.875 101.488281 589.199219 95.328125 598.816406 92.449219 C 607.042969 89.980469 612.25 92.4375 622.265625 103.507812 C 626.710938 108.417969 630.871094 112.441406 631.507812 112.441406 C 632.144531 112.441406 634.015625 110.726562 635.664062 108.628906 C 641.949219 100.636719 656.375 105.53125 671.257812 120.710938 C 682.703125 132.382812 697.96875 145.777344 717.730469 161.472656 C 734.023438 174.417969 740.585938 181.308594 745.164062 190.28125 C 749.144531 198.085938 751.960938 199.167969 755.753906 194.34375 C 761.457031 187.09375 775.488281 183.0625 779.847656 187.421875 C 780.851562 188.429688 781.675781 191.234375 781.675781 193.660156 C 781.675781 202.894531 788.191406 229.632812 793.949219 244.035156 C 797.25 252.289062 804.746094 267.515625 810.605469 277.867188 C 830.363281 312.761719 834.511719 324.34375 836.464844 350.054688 C 837.269531 360.621094 839.285156 373.71875 840.945312 379.164062 C 846.511719 397.402344 850.25 413.894531 854.136719 437.371094 C 856.261719 450.195312 858.644531 463.121094 859.433594 466.09375 C 861.023438 472.09375 866.640625 478.050781 874.40625 481.96875 C 879.289062 484.4375 879.835938 484.410156 886.878906 481.382812 C 896.359375 477.300781 907.390625 477.332031 918.476562 481.46875 C 923.277344 483.257812 932 486.34375 937.867188 488.328125 C 943.734375 490.308594 951.441406 493.011719 954.996094 494.335938 L 961.453125 496.742188 L 956.066406 502.335938 C 949.164062 509.503906 935.792969 529.519531 929.503906 542.097656 C 914.113281 572.886719 900.957031 616.441406 886.140625 685.652344 C 884.777344 692.03125 882.828125 698.296875 881.8125 699.582031 C 879.003906 703.121094 870.371094 703.753906 859.605469 701.207031 Z M 712.492188 613.8125 C 726.980469 606.515625 743.074219 590.46875 749.34375 577.070312 C 757.121094 560.445312 756.976562 559.847656 742.816406 550.265625 C 702.949219 523.28125 669.71875 469.46875 658.234375 413.308594 C 656.539062 404.996094 654.089844 394.535156 652.800781 390.054688 C 650.578125 382.339844 650.238281 381.960938 646.347656 382.902344 C 644.089844 383.449219 638.652344 386.257812 634.265625 389.140625 C 629.878906 392.027344 625.9375 394.386719 625.503906 394.386719 C 623.527344 394.386719 625.117188 389.785156 629.464844 382.925781 L 634.210938 375.4375 L 627.808594 362.433594 C 624.285156 355.28125 618.375 344.144531 614.679688 337.683594 C 607.8125 325.695312 603.382812 312.285156 603.382812 303.476562 C 603.382812 294.417969 606.074219 296.753906 610.246094 309.429688 C 616.128906 327.3125 639.851562 371.496094 643.574219 371.515625 C 647.476562 371.53125 646.246094 365.886719 639.027344 350.589844 C 631.613281 334.890625 595.660156 237.828125 593.492188 227.667969 C 591.863281 220.046875 589.921875 225.210938 586.671875 245.808594 C 584.949219 256.699219 582.570312 270.066406 581.382812 275.511719 C 577.464844 293.46875 575.800781 313.667969 577.285156 325.277344 C 578.464844 334.488281 579.628906 337.441406 584.789062 344.328125 C 600.597656 365.417969 605.957031 378.445312 608.8125 402.730469 C 609.996094 412.8125 612.367188 426.203125 614.085938 432.488281 C 621.59375 460.003906 638.992188 499.0625 649.394531 511.746094 C 660.011719 524.695312 663.214844 532.082031 664.015625 545.484375 C 664.648438 556.125 664.332031 557.824219 660.332031 565.171875 C 652.5 579.570312 655.199219 600.28125 666.324219 611.078125 C 673.683594 618.222656 678.90625 619.9375 691.917969 619.472656 C 699.914062 619.1875 704.128906 618.03125 712.492188 613.816406 Z M 810.015625 582.527344 C 817.003906 558.226562 837.203125 524.046875 857.054688 502.945312 C 863.367188 496.234375 868.53125 490.351562 868.53125 489.875 C 868.53125 489.398438 865.421875 487.1875 861.621094 484.960938 C 853.523438 480.210938 850.246094 474.71875 850.246094 465.882812 C 850.246094 458.046875 845.121094 427.90625 841.332031 413.441406 C 839.792969 407.574219 835.941406 396.300781 832.773438 388.394531 C 827.394531 374.976562 826.960938 372.6875 826.242188 354.105469 C 825.195312 327.078125 821.308594 316.402344 797.964844 276.410156 C 794.089844 269.777344 788.917969 258.804688 786.46875 252.023438 C 781.40625 238.035156 775.578125 211.589844 775.578125 202.636719 C 775.578125 192.03125 769.6875 191.160156 758.972656 200.179688 C 753.027344 205.179688 753.089844 205.949219 761.203125 227.8125 C 767.421875 244.582031 781.039062 272.503906 790.683594 288.257812 C 794.203125 294.007812 796.820312 298.976562 796.5 299.296875 C 795.03125 300.765625 782.714844 288.152344 776.585938 278.902344 C 765.214844 261.730469 759.363281 249.707031 752.699219 229.792969 C 741.378906 195.960938 735.824219 188.480469 699.382812 157.976562 C 689.746094 149.910156 674.839844 136.707031 666.261719 128.636719 C 657.679688 120.570312 649.589844 113.964844 648.28125 113.964844 C 644.265625 113.964844 636.910156 118.480469 636.910156 120.945312 C 636.910156 127.191406 654.769531 149.613281 679.917969 174.929688 C 709.644531 204.847656 718.019531 216.800781 730.523438 247.125 C 738.320312 266.035156 746.90625 281.144531 756.667969 293.128906 C 763.65625 301.710938 762.960938 303.644531 754.472656 299.253906 C 746.464844 295.113281 737.421875 283.265625 729.601562 266.683594 C 702.59375 209.398438 698.042969 202.523438 668.945312 175.015625 C 649.816406 156.933594 645.625 152.019531 632.960938 132.84375 C 617.214844 109.003906 610.082031 101.773438 602.3125 101.773438 C 595.773438 101.773438 592.683594 106.570312 591.613281 118.402344 C 590.789062 127.46875 590.8125 127.527344 595.179688 128.46875 C 611.675781 132.027344 616.636719 136.382812 629.898438 158.960938 C 638.101562 172.925781 646.269531 183.9375 663.433594 204.164062 C 686.289062 231.09375 691.789062 241.730469 706.195312 286.867188 C 715.167969 314.972656 715.378906 315.785156 713.246094 314.46875 C 710.167969 312.566406 701.414062 294.722656 692.265625 271.707031 C 681.234375 243.945312 673.070312 230.753906 653.113281 208.457031 C 638.402344 192.019531 633.257812 184.894531 620.953125 163.898438 C 611.589844 147.921875 606.589844 142.691406 597.949219 139.839844 C 589.964844 137.207031 588.613281 139.15625 590.808594 150.164062 C 593.433594 163.34375 594.921875 187.121094 593.121094 187.121094 C 592.285156 187.121094 590.234375 183.519531 588.5625 179.121094 C 586.890625 174.71875 584.585938 171.117188 583.441406 171.117188 C 579.722656 171.117188 577.335938 186.421875 577.976562 206.171875 C 578.628906 226.4375 579.648438 230.898438 582.992188 228.121094 C 584.152344 227.160156 585.101562 225.535156 585.101562 224.511719 C 585.101562 223.484375 586.472656 221.40625 588.148438 219.886719 C 590.246094 217.988281 591.199219 215.1875 591.203125 210.890625 C 591.214844 202.003906 593.898438 193.511719 597.257812 191.710938 C 601.988281 189.179688 608.703125 189.949219 614.207031 193.652344 C 621.878906 198.808594 641.726562 234.164062 653.027344 262.792969 C 656.285156 271.046875 664.621094 289.34375 671.550781 303.453125 C 678.480469 317.566406 684.148438 329.753906 684.148438 330.542969 C 684.148438 333.613281 676.824219 326.929688 669.402344 317.085938 C 659.652344 304.15625 652.085938 289.097656 646.960938 272.429688 C 644.777344 265.324219 640.082031 254.324219 636.523438 247.988281 C 632.964844 241.648438 625.9375 229.140625 620.910156 220.195312 C 611.570312 203.582031 608.210938 200.765625 604.964844 206.832031 C 602.429688 211.570312 603.007812 215.867188 610.257812 246.097656 C 615.957031 269.847656 620.027344 282.054688 634.054688 317.425781 C 656.707031 374.558594 661.953125 389.464844 669.046875 416.886719 C 675.644531 442.382812 678.269531 449.785156 686.597656 466.371094 C 703.375 499.785156 731.070312 531.839844 756.945312 547.78125 C 763.421875 551.769531 771.578125 557.332031 775.066406 560.136719 C 781.203125 565.066406 797.566406 585.039062 801.355469 592.226562 C 802.378906 594.164062 803.960938 595.5 804.875 595.195312 C 805.785156 594.890625 808.101562 589.191406 810.015625 582.527344 Z M 810.015625 582.527344 " fill-opacity="1" fill-rule="nonzero"/></g></svg>