<svg xmlns="http://www.w3.org/2000/svg" xmlns:xlink="http://www.w3.org/1999/xlink" width="1920" zoomAndPan="magnify" viewBox="0 0 1440 809.999993" height="1080" preserveAspectRatio="xMidYMid meet" version="1.0"><defs><clipPath id="f9aa299d22"><path d="M 597 239 L 806 239 L 806 471 L 597 471 Z M 597 239 " clip-rule="nonzero"/></clipPath><clipPath id="327ddbaf98"><path d="M 670.648438 200.285156 L 852.066406 328.238281 L 731.03125 499.847656 L 549.613281 371.898438 Z M 670.648438 200.285156 " clip-rule="nonzero"/></clipPath><clipPath id="bfe8c70675"><path d="M 670.648438 200.285156 L 852.066406 328.238281 L 731.03125 499.847656 L 549.613281 371.898438 Z M 670.648438 200.285156 " clip-rule="nonzero"/></clipPath></defs><g clip-path="url(#f9aa299d22)"><g clip-path="url(#327ddbaf98)"><g clip-path="url(#bfe8c70675)"><path fill="#ffc60b" d="M 793.234375 286.996094 C 792.859375 286.742188 792.46875 286.492188 792.070312 286.253906 C 775.222656 278.261719 755.738281 288.355469 744.640625 301.550781 C 733.910156 313.054688 727.964844 333.375 739.902344 346.066406 C 741.652344 347.878906 743.878906 349.1875 746.238281 350.042969 C 767.019531 356.246094 788.605469 341.605469 797.828125 323.371094 C 804.648438 312.203125 804.808594 294.941406 793.234375 286.996094 Z M 729.085938 242.777344 C 719.585938 236.421875 705.617188 240.785156 697.84375 248.664062 C 682.253906 264.144531 674.785156 291.769531 689.214844 310.320312 C 690.671875 311.910156 692.425781 313.203125 694.355469 314.160156 C 708.234375 320.84375 723.339844 310.597656 730.769531 298.964844 C 740.878906 283.835938 745.296875 261.21875 732.847656 246.179688 C 731.703125 244.8125 730.441406 243.6875 729.085938 242.777344 Z M 798.023438 366.589844 C 781.1875 356.167969 758.71875 364.511719 746.5 378.484375 C 736.6875 387.859375 732.210938 406.492188 743.984375 416.097656 C 761.402344 428.0625 786.230469 417.875 797.945312 402.300781 C 806.460938 392.546875 809.289062 375.40625 798.023438 366.589844 Z M 654.109375 270.457031 C 647.28125 265.550781 637.609375 264.910156 630.425781 270.332031 C 611.222656 284.835938 606.523438 317.046875 623.539062 334.945312 C 630.796875 342.1875 642.542969 340.949219 649.984375 334.742188 C 665.867188 321.4375 670.355469 296.148438 660.503906 278.078125 C 659.023438 274.964844 656.78125 272.382812 654.109375 270.460938 Z M 702.835938 355.121094 C 689.34375 345.648438 670.824219 342.851562 654.90625 346.902344 C 637.097656 352.144531 619.621094 360.539062 606.015625 373.414062 C 594.730469 381.628906 594.277344 399.925781 605.742188 408.125 C 619.328125 418.285156 637.964844 417.144531 652.246094 426.15625 C 665.199219 432.613281 671.367188 446.09375 679.066406 457.496094 C 685.308594 467.644531 698.710938 474.898438 710.089844 468.464844 C 720.625 461.160156 722.734375 446.933594 724.515625 435.105469 C 725.582031 414.617188 726.523438 392.953125 718.113281 373.761719 C 714.8125 365.96875 709.425781 359.75 702.835938 355.121094 Z M 702.835938 355.121094 " fill-opacity="1" fill-rule="nonzero"/></g></g></g><path fill="#3065ac" d="M 513.9375 509.859375 C 475.449219 464.621094 454.3125 407.878906 454.3125 347.816406 C 454.3125 280.851562 480.40625 217.898438 527.75 170.546875 C 575.097656 123.199219 638.046875 97.117188 705.027344 97.117188 C 771.988281 97.117188 834.9375 123.199219 882.285156 170.546875 C 980.003906 268.296875 980.003906 427.347656 882.285156 525.085938 C 834.9375 572.4375 771.988281 598.519531 705.027344 598.519531 C 644.953125 598.519531 588.21875 577.390625 542.976562 538.898438 L 374.699219 707.199219 C 370.691406 711.210938 365.433594 713.214844 360.179688 713.214844 C 354.925781 713.214844 349.671875 711.210938 345.664062 707.199219 C 337.640625 699.175781 337.640625 686.179688 345.664062 678.15625 Z M 853.246094 496.046875 C 934.964844 414.320312 934.964844 281.324219 853.246094 199.589844 C 771.527344 117.882812 638.546875 117.84375 556.789062 199.589844 C 517.203125 239.1875 495.382812 291.824219 495.382812 347.816406 C 495.382812 403.8125 517.203125 456.457031 556.789062 496.046875 C 638.546875 577.800781 771.527344 577.761719 853.246094 496.046875 Z M 853.246094 496.046875 " fill-opacity="1" fill-rule="nonzero"/></svg>