<svg xmlns="http://www.w3.org/2000/svg" xmlns:xlink="http://www.w3.org/1999/xlink" width="1920" zoomAndPan="magnify" viewBox="0 0 1440 809.999993" height="1080" preserveAspectRatio="xMidYMid meet" version="1.0"><defs><clipPath id="4f351b06e5"><path d="M 451.480469 449 L 538 449 L 538 662 L 451.480469 662 Z M 451.480469 449 " clip-rule="nonzero"/></clipPath><clipPath id="50bc544919"><path d="M 523 426 L 1033.480469 426 L 1033.480469 643 L 523 643 Z M 523 426 " clip-rule="nonzero"/></clipPath></defs><path fill="#ffffff" d="M 458.164062 456.152344 L 530.351562 456.152344 L 530.351562 654.867188 L 458.164062 654.867188 Z M 458.164062 456.152344 " fill-opacity="1" fill-rule="nonzero"/><g clip-path="url(#4f351b06e5)"><path fill="#3065ac" d="M 530.351562 661.550781 L 458.164062 661.550781 C 454.488281 661.550781 451.480469 658.542969 451.480469 654.867188 L 451.480469 456.152344 C 451.480469 452.472656 454.488281 449.464844 458.164062 449.464844 L 530.351562 449.464844 C 534.027344 449.464844 537.035156 452.472656 537.035156 456.152344 L 537.035156 654.867188 C 537.035156 658.542969 534.027344 661.550781 530.351562 661.550781 Z M 464.847656 648.183594 L 523.667969 648.183594 L 523.667969 462.835938 L 464.847656 462.835938 Z M 464.847656 648.183594 " fill-opacity="1" fill-rule="nonzero"/></g><path fill="#ffffff" d="M 530.351562 491.75 L 607.886719 432.753906 L 813.082031 432.753906 C 832.964844 432.753906 849.007812 448.796875 849.007812 468.6875 C 849.007812 488.574219 832.964844 504.617188 813.082031 504.617188 L 689.09375 504.617188 L 707.976562 510.636719 C 740.726562 521.164062 774.816406 526.847656 809.070312 527.683594 L 866.71875 529.1875 L 920.355469 486.570312 C 951.269531 462 994.714844 460.996094 1026.628906 484.230469 L 882.425781 617.933594 L 713.15625 635.480469 L 530.351562 616.59375 Z M 530.351562 491.75 " fill-opacity="1" fill-rule="nonzero"/><g clip-path="url(#50bc544919)"><path fill="#3065ac" d="M 713.324219 642.164062 C 713.15625 642.164062 712.820312 642.164062 712.65625 642.164062 L 529.683594 623.28125 C 526.339844 622.945312 523.667969 620.105469 523.667969 616.59375 L 523.667969 491.75 C 523.667969 489.742188 524.671875 487.738281 526.339844 486.402344 L 603.875 427.40625 C 605.042969 426.570312 606.382812 426.066406 607.886719 426.066406 L 813.082031 426.066406 C 836.472656 426.066406 855.691406 445.121094 855.691406 468.6875 C 855.691406 492.25 836.640625 511.304688 813.082031 511.304688 L 735.046875 511.304688 C 759.273438 517.152344 784.171875 520.496094 809.238281 521.164062 L 864.546875 522.667969 L 916.347656 481.554688 C 949.433594 455.148438 996.554688 454.144531 1030.808594 479.046875 C 1032.480469 480.21875 1033.480469 482.054688 1033.480469 484.0625 C 1033.480469 486.066406 1032.8125 488.074219 1031.308594 489.410156 L 887.105469 623.113281 C 886.101562 624.117188 884.765625 624.785156 883.261719 624.785156 L 713.992188 642.332031 C 713.824219 642.164062 713.492188 642.164062 713.324219 642.164062 Z M 537.035156 610.578125 L 713.324219 628.796875 L 879.753906 611.414062 L 1016.105469 485.066406 C 987.53125 468.519531 951.101562 470.859375 924.703125 491.75 L 871.0625 534.367188 C 869.894531 535.371094 868.222656 535.871094 866.71875 535.871094 L 809.070312 534.367188 C 774.148438 533.363281 739.390625 527.515625 706.136719 516.984375 L 687.089844 510.800781 C 683.914062 509.800781 682.074219 506.625 682.578125 503.449219 C 683.078125 500.273438 685.917969 497.765625 689.261719 497.765625 L 813.246094 497.765625 C 829.289062 497.765625 842.488281 484.730469 842.488281 468.519531 C 842.488281 452.308594 829.457031 439.269531 813.246094 439.269531 L 610.222656 439.269531 L 537.035156 494.925781 Z M 537.035156 610.578125 " fill-opacity="1" fill-rule="nonzero"/></g><path fill="#ffc60b" d="M 796.203125 172.199219 C 760.109375 172.199219 742.566406 202.617188 742.566406 202.617188 C 742.566406 202.617188 725.1875 172.199219 688.925781 172.199219 C 652.835938 172.199219 633.953125 202.953125 633.953125 232.367188 C 633.953125 288.855469 742.566406 353.367188 742.566406 353.367188 C 742.566406 353.367188 851.179688 288.855469 851.179688 232.367188 C 851.179688 202.953125 832.296875 172.199219 796.203125 172.199219 Z M 796.203125 172.199219 " fill-opacity="1" fill-rule="nonzero"/><path fill="#3065ac" d="M 742.566406 359.886719 C 741.394531 359.886719 740.226562 359.550781 739.222656 358.882812 C 738.054688 358.214844 711.316406 342.167969 683.914062 318.9375 C 646.316406 286.851562 627.269531 257.601562 627.269531 232.199219 C 627.269531 199.777344 648.824219 165.347656 688.925781 165.347656 C 716.5 165.347656 734.210938 181.058594 742.566406 191.085938 C 750.921875 181.058594 768.632812 165.347656 796.203125 165.347656 C 836.308594 165.347656 857.863281 199.777344 857.863281 232.199219 C 857.863281 257.601562 838.8125 286.851562 801.214844 318.9375 C 773.980469 342.167969 747.078125 358.214844 745.90625 358.882812 C 744.90625 359.550781 743.734375 359.886719 742.566406 359.886719 Z M 688.925781 178.882812 C 664.863281 178.882812 640.636719 197.269531 640.636719 232.367188 C 640.636719 253.425781 658.683594 279.996094 692.601562 308.910156 C 713.492188 326.792969 734.542969 340.5 742.566406 345.511719 C 750.585938 340.5 771.808594 326.625 792.695312 308.910156 C 826.617188 279.996094 844.496094 253.425781 844.496094 232.367188 C 844.496094 205.792969 827.953125 178.882812 796.203125 178.882812 C 764.453125 178.882812 749.082031 204.789062 748.414062 205.960938 C 747.242188 207.964844 745.070312 209.300781 742.566406 209.300781 C 740.226562 209.300781 737.886719 207.964844 736.71875 205.960938 C 736.046875 204.789062 720.675781 178.882812 688.925781 178.882812 Z M 688.925781 178.882812 " fill-opacity="1" fill-rule="nonzero"/><path fill="#3065ac" d="M 579.3125 249.246094 L 549.402344 249.246094 C 546.558594 249.246094 544.386719 247.074219 544.386719 244.230469 C 544.386719 241.390625 546.558594 239.21875 549.402344 239.21875 L 579.3125 239.21875 C 582.152344 239.21875 584.324219 241.390625 584.324219 244.230469 C 584.324219 247.074219 582.152344 249.246094 579.3125 249.246094 Z M 579.3125 249.246094 " fill-opacity="1" fill-rule="nonzero"/><path fill="#3065ac" d="M 596.1875 362.226562 C 594.851562 362.226562 593.679688 361.722656 592.679688 360.722656 C 590.675781 358.714844 590.675781 355.539062 592.679688 353.703125 L 613.734375 332.644531 C 615.738281 330.636719 618.914062 330.636719 620.75 332.644531 C 622.757812 334.648438 622.757812 337.824219 620.75 339.664062 L 599.695312 360.722656 C 598.863281 361.722656 597.523438 362.226562 596.1875 362.226562 Z M 596.1875 362.226562 " fill-opacity="1" fill-rule="nonzero"/><path fill="#3065ac" d="M 617.410156 157.492188 C 616.074219 157.492188 614.902344 156.992188 613.898438 155.988281 L 592.679688 134.929688 C 590.675781 132.925781 590.675781 129.75 592.679688 127.910156 C 594.683594 125.90625 597.859375 125.90625 599.695312 127.910156 L 620.75 148.96875 C 622.757812 150.972656 622.757812 154.148438 620.75 155.988281 C 619.914062 156.992188 618.578125 157.492188 617.410156 157.492188 Z M 617.410156 157.492188 " fill-opacity="1" fill-rule="nonzero"/><path fill="#3065ac" d="M 935.5625 249.246094 L 905.652344 249.246094 C 902.8125 249.246094 900.640625 247.074219 900.640625 244.230469 C 900.640625 241.390625 902.8125 239.21875 905.652344 239.21875 L 935.5625 239.21875 C 938.402344 239.21875 940.574219 241.390625 940.574219 244.230469 C 940.574219 247.074219 938.402344 249.246094 935.5625 249.246094 Z M 935.5625 249.246094 " fill-opacity="1" fill-rule="nonzero"/><path fill="#3065ac" d="M 867.722656 157.492188 C 866.382812 157.492188 865.214844 156.992188 864.210938 155.988281 C 862.207031 153.984375 862.207031 150.808594 864.210938 148.96875 L 885.265625 127.910156 C 887.273438 125.90625 890.445312 125.90625 892.285156 127.910156 C 894.289062 129.914062 894.289062 133.089844 892.285156 134.929688 L 871.230469 155.988281 C 870.226562 156.992188 868.890625 157.492188 867.722656 157.492188 Z M 867.722656 157.492188 " fill-opacity="1" fill-rule="nonzero"/><path fill="#3065ac" d="M 888.777344 362.226562 C 887.4375 362.226562 886.269531 361.722656 885.265625 360.722656 L 864.210938 339.664062 C 862.207031 337.65625 862.207031 334.480469 864.210938 332.644531 C 866.21875 330.636719 869.390625 330.636719 871.230469 332.644531 L 892.285156 353.703125 C 894.289062 355.707031 894.289062 358.882812 892.285156 360.722656 C 891.449219 361.722656 890.113281 362.226562 888.777344 362.226562 Z M 888.777344 362.226562 " fill-opacity="1" fill-rule="nonzero"/></svg>